<?xml version="1.0" ?>
<!-- Uploaded to: SVG Repo, www.svgrepo.com, Generator: SVG Repo Mixer Tools -->
<svg fill="#000000" width="800px" height="800px" viewBox="0 0 64 64" version="1.1" xml:space="preserve" xmlns="http://www.w3.org/2000/svg" xmlns:xlink="http://www.w3.org/1999/xlink">
<g id="cctv"/>
<g id="smartlamp"/>
<g id="headphone"/>
<g id="headset"/>
<g id="mouse"/>
<g id="wireless_chip"/>
<g id="gamepad"/>
<g id="wireless_charge"/>
<g id="camera"/>
<g id="printer"/>
<g id="laptop"/>
<g id="smartphone"/>
<g id="smartwatch"/>
<g id="speaker"/>
<g id="drone"/>
<g id="smart_plug">
<g>
<path d="M56,3H8C5.2,3,3,5.2,3,8v48c0,2.8,2.2,5,5,5h48c2.8,0,5-2.2,5-5V8C61,5.2,58.8,3,56,3z M59,56c0,1.7-1.3,3-3,3H8    c-1.7,0-3-1.3-3-3V8c0-1.7,1.3-3,3-3h48c1.7,0,3,1.3,3,3V56z"/>
<path d="M32,21c2.8,0,5-2.2,5-5s-2.2-5-5-5s-5,2.2-5,5S29.2,21,32,21z M32,13c1.7,0,3,1.3,3,3s-1.3,3-3,3s-3-1.3-3-3    S30.3,13,32,13z"/>
<path d="M32,43c-2.8,0-5,2.2-5,5s2.2,5,5,5s5-2.2,5-5S34.8,43,32,43z M32,51c-1.7,0-3-1.3-3-3s1.3-3,3-3s3,1.3,3,3S33.7,51,32,51z    "/>
<path d="M55.2,27c0.3,0,0.6-0.1,0.8-0.4c0.2-0.2,0.3-0.6,0.2-0.9C53.3,14.7,43.4,7,32,7S10.7,14.7,7.8,25.8    c-0.1,0.3,0,0.6,0.2,0.9C8.2,26.9,8.5,27,8.8,27c2.3,0,4.2,1.9,4.2,4.2v1.6c0,2.3-1.9,4.2-4.2,4.2c-0.3,0-0.6,0.1-0.8,0.4    c-0.2,0.2-0.3,0.6-0.2,0.9C10.7,49.3,20.6,57,32,57s21.3-7.7,24.2-18.8c0.1-0.3,0-0.6-0.2-0.9c-0.2-0.2-0.5-0.4-0.8-0.4    c-2.3,0-4.2-1.9-4.2-4.2v-1.6C51,28.9,52.9,27,55.2,27z M53.9,38.9C50.9,48.4,42.1,55,32,55s-18.9-6.6-21.9-16.1    c2.8-0.6,4.9-3.1,4.9-6.1v-1.6c0-3-2.1-5.5-4.9-6.1C13.1,15.6,21.9,9,32,9s18.9,6.6,21.9,16.1c-2.8,0.6-4.9,3.1-4.9,6.1v1.6    C49,35.8,51.1,38.3,53.9,38.9z"/>
<path d="M29,32c0,1.7,1.3,3,3,3s3-1.3,3-3s-1.3-3-3-3S29,30.3,29,32z M33,32c0,0.6-0.4,1-1,1s-1-0.4-1-1s0.4-1,1-1S33,31.4,33,32z    "/>
<path d="M28.3,36.8c0.4-0.4,0.4-1,0-1.4C27.5,34.5,27,33.3,27,32s0.5-2.5,1.3-3.4c0.4-0.4,0.4-1,0-1.4c-0.4-0.4-1-0.4-1.4,0    c-1.2,1.3-1.9,3-1.9,4.7s0.7,3.5,1.9,4.7c0.2,0.2,0.5,0.3,0.7,0.3C27.8,37.1,28.1,37,28.3,36.8z"/>
<path d="M23,32c0-2.3,0.9-4.4,2.4-6.1c0.4-0.4,0.4-1-0.1-1.4c-0.4-0.4-1-0.4-1.4,0.1C22,26.6,21,29.2,21,32s1,5.4,2.9,7.5    c0.2,0.2,0.5,0.3,0.7,0.3c0.2,0,0.5-0.1,0.7-0.3c0.4-0.4,0.4-1,0.1-1.4C23.9,36.4,23,34.3,23,32z"/>
<path d="M19,32c0-3.3,1.2-6.4,3.5-8.8c0.4-0.4,0.4-1-0.1-1.4c-0.4-0.4-1-0.3-1.4,0.1c-2.6,2.8-4,6.4-4,10.2s1.4,7.4,4,10.2    c0.2,0.2,0.5,0.3,0.7,0.3c0.2,0,0.5-0.1,0.7-0.3c0.4-0.4,0.4-1,0.1-1.4C20.2,38.4,19,35.3,19,32z"/>
<path d="M37.1,27.3c-0.4-0.4-1-0.4-1.4,0c-0.4,0.4-0.4,1,0,1.4c0.9,0.9,1.3,2.1,1.3,3.4s-0.5,2.5-1.3,3.4c-0.4,0.4-0.4,1,0,1.4    c0.2,0.2,0.4,0.3,0.7,0.3c0.3,0,0.5-0.1,0.7-0.3c1.2-1.3,1.9-3,1.9-4.7S38.3,28.5,37.1,27.3z"/>
<path d="M40.1,24.5c-0.4-0.4-1-0.4-1.4-0.1c-0.4,0.4-0.4,1-0.1,1.4c1.5,1.7,2.4,3.8,2.4,6.1s-0.9,4.4-2.4,6.1    c-0.4,0.4-0.4,1,0.1,1.4c0.2,0.2,0.4,0.3,0.7,0.3c0.3,0,0.5-0.1,0.7-0.3c1.9-2,2.9-4.7,2.9-7.5S42,26.6,40.1,24.5z"/>
<path d="M41.6,21.8c-0.4,0.4-0.4,1-0.1,1.4c2.2,2.4,3.5,5.5,3.5,8.8s-1.2,6.4-3.5,8.8c-0.4,0.4-0.4,1,0.1,1.4    c0.2,0.2,0.4,0.3,0.7,0.3c0.3,0,0.5-0.1,0.7-0.3c2.6-2.8,4-6.4,4-10.2s-1.4-7.4-4-10.2C42.6,21.4,42,21.4,41.6,21.8z"/>
</g>
</g>
<g id="router"/>
<g id="smart_lock"/>
<g id="air_conditioner"/>
<g id="smartglasses"/>
</svg>