<?xml version="1.0" encoding="utf-8"?>
<!-- Uploaded to: SVG Repo, www.svgrepo.com, Generator: SVG Repo Mixer Tools -->
<svg fill="#000000" width="800px" height="800px" viewBox="0 0 32 32" version="1.1" xmlns="http://www.w3.org/2000/svg">
<title>calendar</title>
<path d="M28 5.25h-1.25v-3.25c0-0.414-0.336-0.75-0.75-0.75s-0.75 0.336-0.75 0.75v0 3.25h-18.5v-3.25c0-0.414-0.336-0.75-0.75-0.75s-0.75 0.336-0.75 0.75v0 3.25h-1.25c-1.518 0.002-2.748 1.232-2.75 2.75v19.998c0.002 1.518 1.232 2.748 2.75 2.75h24c1.518-0.002 2.748-1.232 2.75-2.75v-19.998c-0.002-1.518-1.232-2.748-2.75-2.75h-0zM4 6.75h24c0.69 0.001 1.249 0.56 1.25 1.25v3.25h-26.5v-3.25c0.001-0.69 0.56-1.249 1.25-1.25h0zM28 29.248h-24c-0.69-0.001-1.249-0.56-1.25-1.25v-15.248h26.5v15.248c-0.001 0.69-0.56 1.249-1.25 1.25h-0z"></path>
</svg>